%FSLAX25Y25*%
%MOIN*%
G70*
G01*
G75*
G04 Layer_Physical_Order=2*
G04 Layer_Color=16711680*
%ADD10R,0.03937X0.02756*%
%ADD11R,0.02756X0.03937*%
%ADD12R,0.09055X0.09055*%
%ADD13O,0.01378X0.07087*%
%ADD14R,0.01378X0.07087*%
%ADD15R,0.05000X0.07500*%
%ADD16R,0.11811X0.06299*%
%ADD17R,0.24410X0.22835*%
%ADD18R,0.02362X0.05906*%
%ADD19O,0.02165X0.06496*%
%ADD20O,0.06496X0.02165*%
%ADD21R,0.19685X0.05906*%
%ADD22C,0.03000*%
%ADD23C,0.01500*%
%ADD24C,0.02000*%
%ADD25C,0.01300*%
%ADD26C,0.07874*%
%ADD27R,0.05906X0.05906*%
%ADD28C,0.05906*%
%ADD29C,0.03800*%
%ADD30C,0.43307*%
%ADD31R,0.15354X0.24410*%
%ADD32R,0.12992X0.17323*%
%ADD33R,0.14500X0.05000*%
%ADD34R,0.43307X0.27559*%
%ADD35R,0.12598X0.16535*%
%ADD36R,0.04724X0.12205*%
G36*
X450000Y0D02*
X0D01*
Y220000D01*
X450000D01*
Y0D01*
D02*
G37*
%LPC*%
G36*
X235000Y93583D02*
X234073Y93461D01*
X233208Y93103D01*
X232466Y92534D01*
X231897Y91792D01*
X231539Y90927D01*
X231417Y90000D01*
X231539Y89073D01*
X231897Y88208D01*
X232466Y87466D01*
X233208Y86897D01*
X234073Y86539D01*
X235000Y86417D01*
X235927Y86539D01*
X236792Y86897D01*
X237534Y87466D01*
X238103Y88208D01*
X238461Y89073D01*
X238583Y90000D01*
X238461Y90927D01*
X238103Y91792D01*
X237534Y92534D01*
X236792Y93103D01*
X235927Y93461D01*
X235000Y93583D01*
D02*
G37*
G36*
X245000D02*
X244073Y93461D01*
X243208Y93103D01*
X242466Y92534D01*
X241897Y91792D01*
X241539Y90927D01*
X241417Y90000D01*
X241539Y89073D01*
X241897Y88208D01*
X242466Y87466D01*
X243208Y86897D01*
X244073Y86539D01*
X245000Y86417D01*
X245927Y86539D01*
X246792Y86897D01*
X247534Y87466D01*
X248103Y88208D01*
X248461Y89073D01*
X248583Y90000D01*
X248461Y90927D01*
X248103Y91792D01*
X247534Y92534D01*
X246792Y93103D01*
X245927Y93461D01*
X245000Y93583D01*
D02*
G37*
G36*
X225000D02*
X224073Y93461D01*
X223208Y93103D01*
X222466Y92534D01*
X221897Y91792D01*
X221539Y90927D01*
X221417Y90000D01*
X221539Y89073D01*
X221897Y88208D01*
X222466Y87466D01*
X223208Y86897D01*
X224073Y86539D01*
X225000Y86417D01*
X225927Y86539D01*
X226792Y86897D01*
X227534Y87466D01*
X228103Y88208D01*
X228461Y89073D01*
X228583Y90000D01*
X228461Y90927D01*
X228103Y91792D01*
X227534Y92534D01*
X226792Y93103D01*
X225927Y93461D01*
X225000Y93583D01*
D02*
G37*
G36*
X185000D02*
X184073Y93461D01*
X183208Y93103D01*
X182466Y92534D01*
X181897Y91792D01*
X181539Y90927D01*
X181417Y90000D01*
X181539Y89073D01*
X181897Y88208D01*
X182466Y87466D01*
X183208Y86897D01*
X184073Y86539D01*
X185000Y86417D01*
X185927Y86539D01*
X186792Y86897D01*
X187534Y87466D01*
X188103Y88208D01*
X188461Y89073D01*
X188583Y90000D01*
X188461Y90927D01*
X188103Y91792D01*
X187534Y92534D01*
X186792Y93103D01*
X185927Y93461D01*
X185000Y93583D01*
D02*
G37*
G36*
X215000D02*
X214073Y93461D01*
X213208Y93103D01*
X212466Y92534D01*
X211897Y91792D01*
X211539Y90927D01*
X211417Y90000D01*
X211539Y89073D01*
X211897Y88208D01*
X212466Y87466D01*
X213208Y86897D01*
X214073Y86539D01*
X215000Y86417D01*
X215927Y86539D01*
X216792Y86897D01*
X217534Y87466D01*
X218103Y88208D01*
X218461Y89073D01*
X218583Y90000D01*
X218461Y90927D01*
X218103Y91792D01*
X217534Y92534D01*
X216792Y93103D01*
X215927Y93461D01*
X215000Y93583D01*
D02*
G37*
G36*
X290000D02*
X289073Y93461D01*
X288208Y93103D01*
X287466Y92534D01*
X286897Y91792D01*
X286539Y90927D01*
X286417Y90000D01*
X286539Y89073D01*
X286897Y88208D01*
X287466Y87466D01*
X288208Y86897D01*
X289073Y86539D01*
X290000Y86417D01*
X290927Y86539D01*
X291792Y86897D01*
X292534Y87466D01*
X293103Y88208D01*
X293461Y89073D01*
X293583Y90000D01*
X293461Y90927D01*
X293103Y91792D01*
X292534Y92534D01*
X291792Y93103D01*
X290927Y93461D01*
X290000Y93583D01*
D02*
G37*
G36*
X350000D02*
X349073Y93461D01*
X348208Y93103D01*
X347466Y92534D01*
X346897Y91792D01*
X346539Y90927D01*
X346417Y90000D01*
X346539Y89073D01*
X346897Y88208D01*
X347466Y87466D01*
X348208Y86897D01*
X349073Y86539D01*
X350000Y86417D01*
X350927Y86539D01*
X351792Y86897D01*
X352534Y87466D01*
X353103Y88208D01*
X353461Y89073D01*
X353583Y90000D01*
X353461Y90927D01*
X353103Y91792D01*
X352534Y92534D01*
X351792Y93103D01*
X350927Y93461D01*
X350000Y93583D01*
D02*
G37*
G36*
X360000D02*
X359073Y93461D01*
X358208Y93103D01*
X357466Y92534D01*
X356897Y91792D01*
X356539Y90927D01*
X356417Y90000D01*
X356539Y89073D01*
X356897Y88208D01*
X357466Y87466D01*
X358208Y86897D01*
X359073Y86539D01*
X360000Y86417D01*
X360927Y86539D01*
X361792Y86897D01*
X362534Y87466D01*
X363103Y88208D01*
X363461Y89073D01*
X363583Y90000D01*
X363461Y90927D01*
X363103Y91792D01*
X362534Y92534D01*
X361792Y93103D01*
X360927Y93461D01*
X360000Y93583D01*
D02*
G37*
G36*
X320000D02*
X319073Y93461D01*
X318208Y93103D01*
X317466Y92534D01*
X316897Y91792D01*
X316539Y90927D01*
X316417Y90000D01*
X316539Y89073D01*
X316897Y88208D01*
X317466Y87466D01*
X318208Y86897D01*
X319073Y86539D01*
X320000Y86417D01*
X320927Y86539D01*
X321792Y86897D01*
X322534Y87466D01*
X323103Y88208D01*
X323461Y89073D01*
X323583Y90000D01*
X323461Y90927D01*
X323103Y91792D01*
X322534Y92534D01*
X321792Y93103D01*
X320927Y93461D01*
X320000Y93583D01*
D02*
G37*
G36*
X300000D02*
X299073Y93461D01*
X298208Y93103D01*
X297466Y92534D01*
X296897Y91792D01*
X296539Y90927D01*
X296417Y90000D01*
X296539Y89073D01*
X296897Y88208D01*
X297466Y87466D01*
X298208Y86897D01*
X299073Y86539D01*
X300000Y86417D01*
X300927Y86539D01*
X301792Y86897D01*
X302534Y87466D01*
X303103Y88208D01*
X303461Y89073D01*
X303583Y90000D01*
X303461Y90927D01*
X303103Y91792D01*
X302534Y92534D01*
X301792Y93103D01*
X300927Y93461D01*
X300000Y93583D01*
D02*
G37*
G36*
X310000D02*
X309073Y93461D01*
X308208Y93103D01*
X307466Y92534D01*
X306897Y91792D01*
X306539Y90927D01*
X306417Y90000D01*
X306539Y89073D01*
X306897Y88208D01*
X307466Y87466D01*
X308208Y86897D01*
X309073Y86539D01*
X310000Y86417D01*
X310927Y86539D01*
X311792Y86897D01*
X312534Y87466D01*
X313103Y88208D01*
X313461Y89073D01*
X313583Y90000D01*
X313461Y90927D01*
X313103Y91792D01*
X312534Y92534D01*
X311792Y93103D01*
X310927Y93461D01*
X310000Y93583D01*
D02*
G37*
G36*
X312450Y71500D02*
X310500D01*
Y69551D01*
X310976Y69645D01*
X311802Y70198D01*
X312355Y71025D01*
X312450Y71500D01*
D02*
G37*
G36*
X309500Y74449D02*
X309025Y74355D01*
X308198Y73802D01*
X307645Y72975D01*
X307551Y72500D01*
X309500D01*
Y74449D01*
D02*
G37*
G36*
Y71500D02*
X307551D01*
X307645Y71025D01*
X308198Y70198D01*
X309025Y69645D01*
X309500Y69551D01*
Y71500D01*
D02*
G37*
G36*
X223953Y70402D02*
X223477Y70308D01*
X222650Y69755D01*
X222098Y68928D01*
X222003Y68453D01*
X223953D01*
Y70402D01*
D02*
G37*
G36*
X224953D02*
Y68453D01*
X226902D01*
X226808Y68928D01*
X226255Y69755D01*
X225428Y70308D01*
X224953Y70402D01*
D02*
G37*
G36*
X310500Y74449D02*
Y72500D01*
X312450D01*
X312355Y72975D01*
X311802Y73802D01*
X310976Y74355D01*
X310500Y74449D01*
D02*
G37*
G36*
X165000Y93583D02*
X164073Y93461D01*
X163208Y93103D01*
X162466Y92534D01*
X161897Y91792D01*
X161539Y90927D01*
X161417Y90000D01*
X161539Y89073D01*
X161897Y88208D01*
X162466Y87466D01*
X163208Y86897D01*
X164073Y86539D01*
X165000Y86417D01*
X165927Y86539D01*
X166792Y86897D01*
X167534Y87466D01*
X168103Y88208D01*
X168461Y89073D01*
X168583Y90000D01*
X168461Y90927D01*
X168103Y91792D01*
X167534Y92534D01*
X166792Y93103D01*
X165927Y93461D01*
X165000Y93583D01*
D02*
G37*
G36*
X175000D02*
X174073Y93461D01*
X173208Y93103D01*
X172466Y92534D01*
X171897Y91792D01*
X171539Y90927D01*
X171417Y90000D01*
X171539Y89073D01*
X171897Y88208D01*
X172466Y87466D01*
X173208Y86897D01*
X174073Y86539D01*
X175000Y86417D01*
X175927Y86539D01*
X176792Y86897D01*
X177534Y87466D01*
X178103Y88208D01*
X178461Y89073D01*
X178583Y90000D01*
X178461Y90927D01*
X178103Y91792D01*
X177534Y92534D01*
X176792Y93103D01*
X175927Y93461D01*
X175000Y93583D01*
D02*
G37*
G36*
X155000D02*
X154073Y93461D01*
X153208Y93103D01*
X152466Y92534D01*
X151897Y91792D01*
X151539Y90927D01*
X151417Y90000D01*
X151539Y89073D01*
X151897Y88208D01*
X152466Y87466D01*
X153208Y86897D01*
X154073Y86539D01*
X155000Y86417D01*
X155927Y86539D01*
X156792Y86897D01*
X157534Y87466D01*
X158103Y88208D01*
X158461Y89073D01*
X158583Y90000D01*
X158461Y90927D01*
X158103Y91792D01*
X157534Y92534D01*
X156792Y93103D01*
X155927Y93461D01*
X155000Y93583D01*
D02*
G37*
G36*
X102072Y85505D02*
X87880D01*
Y78385D01*
X82295D01*
X81976Y78599D01*
X81000Y78793D01*
X80024Y78599D01*
X79198Y78047D01*
X78645Y77219D01*
X78451Y76244D01*
X78645Y75269D01*
X79198Y74442D01*
X80024Y73889D01*
X81000Y73695D01*
X81976Y73889D01*
X82295Y74103D01*
X87880D01*
Y66983D01*
X102072D01*
Y85505D01*
D02*
G37*
G36*
X281000Y85049D02*
X280025Y84855D01*
X279198Y84302D01*
X279083Y84131D01*
X273917D01*
X273802Y84302D01*
X272975Y84855D01*
X272000Y85049D01*
X271024Y84855D01*
X270198Y84302D01*
X269645Y83476D01*
X269451Y82500D01*
X269645Y81524D01*
X270198Y80698D01*
X271024Y80145D01*
X272000Y79951D01*
X272975Y80145D01*
X273802Y80698D01*
X273917Y80869D01*
X279083D01*
X279198Y80698D01*
X280025Y80145D01*
X281000Y79951D01*
X281976Y80145D01*
X282802Y80698D01*
X283355Y81524D01*
X283549Y82500D01*
X283355Y83476D01*
X282802Y84302D01*
X281976Y84855D01*
X281000Y85049D01*
D02*
G37*
G36*
X370000Y93583D02*
X369073Y93461D01*
X368208Y93103D01*
X367466Y92534D01*
X366897Y91792D01*
X366539Y90927D01*
X366417Y90000D01*
X366539Y89073D01*
X366897Y88208D01*
X367466Y87466D01*
X368208Y86897D01*
X369073Y86539D01*
X370000Y86417D01*
X370927Y86539D01*
X371792Y86897D01*
X372534Y87466D01*
X373103Y88208D01*
X373461Y89073D01*
X373583Y90000D01*
X373461Y90927D01*
X373103Y91792D01*
X372534Y92534D01*
X371792Y93103D01*
X370927Y93461D01*
X370000Y93583D01*
D02*
G37*
G36*
X405709Y110260D02*
X403760D01*
Y108310D01*
X404235Y108405D01*
X405062Y108957D01*
X405615Y109784D01*
X405709Y110260D01*
D02*
G37*
G36*
X402760Y113209D02*
X402284Y113115D01*
X401457Y112562D01*
X400905Y111735D01*
X400810Y111260D01*
X402760D01*
Y113209D01*
D02*
G37*
G36*
Y110260D02*
X400810D01*
X400905Y109784D01*
X401457Y108957D01*
X402284Y108405D01*
X402760Y108310D01*
Y110260D01*
D02*
G37*
G36*
X106186Y109238D02*
X103724D01*
Y103036D01*
X106186D01*
Y109238D01*
D02*
G37*
G36*
X109649D02*
X107186D01*
Y103036D01*
X109649D01*
Y109238D01*
D02*
G37*
G36*
X403760Y113209D02*
Y111260D01*
X405709D01*
X405615Y111735D01*
X405062Y112562D01*
X404235Y113115D01*
X403760Y113209D01*
D02*
G37*
G36*
X293185Y127815D02*
X291235D01*
X291330Y127339D01*
X291883Y126513D01*
X292710Y125960D01*
X293185Y125865D01*
Y127815D01*
D02*
G37*
G36*
X296135D02*
X294185D01*
Y125865D01*
X294660Y125960D01*
X295487Y126513D01*
X296040Y127339D01*
X296135Y127815D01*
D02*
G37*
G36*
X384450Y127500D02*
X382500D01*
Y125550D01*
X382976Y125645D01*
X383802Y126198D01*
X384355Y127024D01*
X384450Y127500D01*
D02*
G37*
G36*
X283198Y167765D02*
X269400D01*
Y150030D01*
X274158D01*
Y125941D01*
X273944Y125621D01*
X273750Y124646D01*
X273944Y123670D01*
X274497Y122843D01*
X275324Y122291D01*
X276299Y122097D01*
X277275Y122291D01*
X278102Y122843D01*
X278654Y123670D01*
X278848Y124646D01*
X278654Y125621D01*
X278440Y125941D01*
Y150030D01*
X283198D01*
Y167765D01*
D02*
G37*
G36*
X381500Y127500D02*
X379551D01*
X379645Y127024D01*
X380198Y126198D01*
X381025Y125645D01*
X381500Y125550D01*
Y127500D01*
D02*
G37*
G36*
X333553Y93553D02*
X326447D01*
Y86447D01*
X333553D01*
Y93553D01*
D02*
G37*
G36*
X393553D02*
X386447D01*
Y86447D01*
X393553D01*
Y93553D01*
D02*
G37*
G36*
X258553D02*
X251447D01*
Y86447D01*
X258553D01*
Y93553D01*
D02*
G37*
G36*
X380000Y93583D02*
X379073Y93461D01*
X378208Y93103D01*
X377466Y92534D01*
X376897Y91792D01*
X376539Y90927D01*
X376417Y90000D01*
X376539Y89073D01*
X376897Y88208D01*
X377466Y87466D01*
X378208Y86897D01*
X379073Y86539D01*
X380000Y86417D01*
X380927Y86539D01*
X381792Y86897D01*
X382534Y87466D01*
X383103Y88208D01*
X383461Y89073D01*
X383583Y90000D01*
X383461Y90927D01*
X383103Y91792D01*
X382534Y92534D01*
X381792Y93103D01*
X380927Y93461D01*
X380000Y93583D01*
D02*
G37*
G36*
X198553Y93553D02*
X191447D01*
Y86447D01*
X198553D01*
Y93553D01*
D02*
G37*
G36*
X69572Y102036D02*
X67110D01*
Y95833D01*
X69572D01*
Y102036D01*
D02*
G37*
G36*
Y109238D02*
X67110D01*
Y103036D01*
X69572D01*
Y109238D01*
D02*
G37*
G36*
X73035D02*
X70572D01*
Y103036D01*
X73035D01*
Y109238D01*
D02*
G37*
G36*
X109649Y102036D02*
X107186D01*
Y95833D01*
X109649D01*
Y102036D01*
D02*
G37*
G36*
X73035D02*
X70572D01*
Y95833D01*
X73035D01*
Y102036D01*
D02*
G37*
G36*
X106186D02*
X103724D01*
Y95833D01*
X106186D01*
Y102036D01*
D02*
G37*
G36*
X226902Y67453D02*
X224953D01*
Y65503D01*
X225428Y65598D01*
X226255Y66150D01*
X226808Y66977D01*
X226902Y67453D01*
D02*
G37*
G36*
X310000Y23583D02*
X309073Y23461D01*
X308208Y23103D01*
X307466Y22534D01*
X306897Y21792D01*
X306539Y20927D01*
X306417Y20000D01*
X306539Y19073D01*
X306897Y18208D01*
X307466Y17466D01*
X308208Y16897D01*
X309073Y16539D01*
X310000Y16417D01*
X310927Y16539D01*
X311792Y16897D01*
X312534Y17466D01*
X313103Y18208D01*
X313461Y19073D01*
X313583Y20000D01*
X313461Y20927D01*
X313103Y21792D01*
X312534Y22534D01*
X311792Y23103D01*
X310927Y23461D01*
X310000Y23583D01*
D02*
G37*
G36*
X320000D02*
X319073Y23461D01*
X318208Y23103D01*
X317466Y22534D01*
X316897Y21792D01*
X316539Y20927D01*
X316417Y20000D01*
X316539Y19073D01*
X316897Y18208D01*
X317466Y17466D01*
X318208Y16897D01*
X319073Y16539D01*
X320000Y16417D01*
X320927Y16539D01*
X321792Y16897D01*
X322534Y17466D01*
X323103Y18208D01*
X323461Y19073D01*
X323583Y20000D01*
X323461Y20927D01*
X323103Y21792D01*
X322534Y22534D01*
X321792Y23103D01*
X320927Y23461D01*
X320000Y23583D01*
D02*
G37*
G36*
X300000D02*
X299073Y23461D01*
X298208Y23103D01*
X297466Y22534D01*
X296897Y21792D01*
X296539Y20927D01*
X296417Y20000D01*
X296539Y19073D01*
X296897Y18208D01*
X297466Y17466D01*
X298208Y16897D01*
X299073Y16539D01*
X300000Y16417D01*
X300927Y16539D01*
X301792Y16897D01*
X302534Y17466D01*
X303103Y18208D01*
X303461Y19073D01*
X303583Y20000D01*
X303461Y20927D01*
X303103Y21792D01*
X302534Y22534D01*
X301792Y23103D01*
X300927Y23461D01*
X300000Y23583D01*
D02*
G37*
G36*
X245000D02*
X244073Y23461D01*
X243208Y23103D01*
X242466Y22534D01*
X241897Y21792D01*
X241539Y20927D01*
X241417Y20000D01*
X241539Y19073D01*
X241897Y18208D01*
X242466Y17466D01*
X243208Y16897D01*
X244073Y16539D01*
X245000Y16417D01*
X245927Y16539D01*
X246792Y16897D01*
X247534Y17466D01*
X248103Y18208D01*
X248461Y19073D01*
X248583Y20000D01*
X248461Y20927D01*
X248103Y21792D01*
X247534Y22534D01*
X246792Y23103D01*
X245927Y23461D01*
X245000Y23583D01*
D02*
G37*
G36*
X290000D02*
X289073Y23461D01*
X288208Y23103D01*
X287466Y22534D01*
X286897Y21792D01*
X286539Y20927D01*
X286417Y20000D01*
X286539Y19073D01*
X286897Y18208D01*
X287466Y17466D01*
X288208Y16897D01*
X289073Y16539D01*
X290000Y16417D01*
X290927Y16539D01*
X291792Y16897D01*
X292534Y17466D01*
X293103Y18208D01*
X293461Y19073D01*
X293583Y20000D01*
X293461Y20927D01*
X293103Y21792D01*
X292534Y22534D01*
X291792Y23103D01*
X290927Y23461D01*
X290000Y23583D01*
D02*
G37*
G36*
X350000D02*
X349073Y23461D01*
X348208Y23103D01*
X347466Y22534D01*
X346897Y21792D01*
X346539Y20927D01*
X346417Y20000D01*
X346539Y19073D01*
X346897Y18208D01*
X347466Y17466D01*
X348208Y16897D01*
X349073Y16539D01*
X350000Y16417D01*
X350927Y16539D01*
X351792Y16897D01*
X352534Y17466D01*
X353103Y18208D01*
X353461Y19073D01*
X353583Y20000D01*
X353461Y20927D01*
X353103Y21792D01*
X352534Y22534D01*
X351792Y23103D01*
X350927Y23461D01*
X350000Y23583D01*
D02*
G37*
G36*
X198553Y23553D02*
X191447D01*
Y16447D01*
X198553D01*
Y23553D01*
D02*
G37*
G36*
X258553D02*
X251447D01*
Y16447D01*
X258553D01*
Y23553D01*
D02*
G37*
G36*
X380000Y23583D02*
X379073Y23461D01*
X378208Y23103D01*
X377466Y22534D01*
X376897Y21792D01*
X376539Y20927D01*
X376417Y20000D01*
X376539Y19073D01*
X376897Y18208D01*
X377466Y17466D01*
X378208Y16897D01*
X379073Y16539D01*
X380000Y16417D01*
X380927Y16539D01*
X381792Y16897D01*
X382534Y17466D01*
X383103Y18208D01*
X383461Y19073D01*
X383583Y20000D01*
X383461Y20927D01*
X383103Y21792D01*
X382534Y22534D01*
X381792Y23103D01*
X380927Y23461D01*
X380000Y23583D01*
D02*
G37*
G36*
X360000D02*
X359073Y23461D01*
X358208Y23103D01*
X357466Y22534D01*
X356897Y21792D01*
X356539Y20927D01*
X356417Y20000D01*
X356539Y19073D01*
X356897Y18208D01*
X357466Y17466D01*
X358208Y16897D01*
X359073Y16539D01*
X360000Y16417D01*
X360927Y16539D01*
X361792Y16897D01*
X362534Y17466D01*
X363103Y18208D01*
X363461Y19073D01*
X363583Y20000D01*
X363461Y20927D01*
X363103Y21792D01*
X362534Y22534D01*
X361792Y23103D01*
X360927Y23461D01*
X360000Y23583D01*
D02*
G37*
G36*
X370000D02*
X369073Y23461D01*
X368208Y23103D01*
X367466Y22534D01*
X366897Y21792D01*
X366539Y20927D01*
X366417Y20000D01*
X366539Y19073D01*
X366897Y18208D01*
X367466Y17466D01*
X368208Y16897D01*
X369073Y16539D01*
X370000Y16417D01*
X370927Y16539D01*
X371792Y16897D01*
X372534Y17466D01*
X373103Y18208D01*
X373461Y19073D01*
X373583Y20000D01*
X373461Y20927D01*
X373103Y21792D01*
X372534Y22534D01*
X371792Y23103D01*
X370927Y23461D01*
X370000Y23583D01*
D02*
G37*
G36*
X442269Y29500D02*
X420500D01*
Y7732D01*
X422911Y7890D01*
X425772Y8459D01*
X428534Y9396D01*
X431151Y10687D01*
X433576Y12307D01*
X435769Y14231D01*
X437693Y16424D01*
X439314Y18849D01*
X440604Y21466D01*
X441541Y24228D01*
X442110Y27089D01*
X442269Y29500D01*
D02*
G37*
G36*
X155000Y23583D02*
X154073Y23461D01*
X153208Y23103D01*
X152466Y22534D01*
X151897Y21792D01*
X151539Y20927D01*
X151417Y20000D01*
X151539Y19073D01*
X151897Y18208D01*
X152466Y17466D01*
X153208Y16897D01*
X154073Y16539D01*
X155000Y16417D01*
X155927Y16539D01*
X156792Y16897D01*
X157534Y17466D01*
X158103Y18208D01*
X158461Y19073D01*
X158583Y20000D01*
X158461Y20927D01*
X158103Y21792D01*
X157534Y22534D01*
X156792Y23103D01*
X155927Y23461D01*
X155000Y23583D01*
D02*
G37*
G36*
X419500Y29500D02*
X397731D01*
X397889Y27089D01*
X398459Y24228D01*
X399396Y21466D01*
X400687Y18849D01*
X402307Y16424D01*
X404231Y14231D01*
X406424Y12307D01*
X408849Y10687D01*
X411466Y9396D01*
X414228Y8459D01*
X417089Y7890D01*
X419500Y7732D01*
Y29500D01*
D02*
G37*
G36*
X29500D02*
X7732D01*
X7890Y27089D01*
X8459Y24228D01*
X9396Y21466D01*
X10687Y18849D01*
X12307Y16424D01*
X14231Y14231D01*
X16424Y12307D01*
X18849Y10687D01*
X21466Y9396D01*
X24228Y8459D01*
X27089Y7890D01*
X29500Y7732D01*
Y29500D01*
D02*
G37*
G36*
X52268D02*
X30500D01*
Y7732D01*
X32911Y7890D01*
X35772Y8459D01*
X38534Y9396D01*
X41151Y10687D01*
X43576Y12307D01*
X45769Y14231D01*
X47693Y16424D01*
X49314Y18849D01*
X50604Y21466D01*
X51541Y24228D01*
X52110Y27089D01*
X52268Y29500D01*
D02*
G37*
G36*
X165000Y23583D02*
X164073Y23461D01*
X163208Y23103D01*
X162466Y22534D01*
X161897Y21792D01*
X161539Y20927D01*
X161417Y20000D01*
X161539Y19073D01*
X161897Y18208D01*
X162466Y17466D01*
X163208Y16897D01*
X164073Y16539D01*
X165000Y16417D01*
X165927Y16539D01*
X166792Y16897D01*
X167534Y17466D01*
X168103Y18208D01*
X168461Y19073D01*
X168583Y20000D01*
X168461Y20927D01*
X168103Y21792D01*
X167534Y22534D01*
X166792Y23103D01*
X165927Y23461D01*
X165000Y23583D01*
D02*
G37*
G36*
X225000D02*
X224073Y23461D01*
X223208Y23103D01*
X222466Y22534D01*
X221897Y21792D01*
X221539Y20927D01*
X221417Y20000D01*
X221539Y19073D01*
X221897Y18208D01*
X222466Y17466D01*
X223208Y16897D01*
X224073Y16539D01*
X225000Y16417D01*
X225927Y16539D01*
X226792Y16897D01*
X227534Y17466D01*
X228103Y18208D01*
X228461Y19073D01*
X228583Y20000D01*
X228461Y20927D01*
X228103Y21792D01*
X227534Y22534D01*
X226792Y23103D01*
X225927Y23461D01*
X225000Y23583D01*
D02*
G37*
G36*
X235000D02*
X234073Y23461D01*
X233208Y23103D01*
X232466Y22534D01*
X231897Y21792D01*
X231539Y20927D01*
X231417Y20000D01*
X231539Y19073D01*
X231897Y18208D01*
X232466Y17466D01*
X233208Y16897D01*
X234073Y16539D01*
X235000Y16417D01*
X235927Y16539D01*
X236792Y16897D01*
X237534Y17466D01*
X238103Y18208D01*
X238461Y19073D01*
X238583Y20000D01*
X238461Y20927D01*
X238103Y21792D01*
X237534Y22534D01*
X236792Y23103D01*
X235927Y23461D01*
X235000Y23583D01*
D02*
G37*
G36*
X215000D02*
X214073Y23461D01*
X213208Y23103D01*
X212466Y22534D01*
X211897Y21792D01*
X211539Y20927D01*
X211417Y20000D01*
X211539Y19073D01*
X211897Y18208D01*
X212466Y17466D01*
X213208Y16897D01*
X214073Y16539D01*
X215000Y16417D01*
X215927Y16539D01*
X216792Y16897D01*
X217534Y17466D01*
X218103Y18208D01*
X218461Y19073D01*
X218583Y20000D01*
X218461Y20927D01*
X218103Y21792D01*
X217534Y22534D01*
X216792Y23103D01*
X215927Y23461D01*
X215000Y23583D01*
D02*
G37*
G36*
X175000D02*
X174073Y23461D01*
X173208Y23103D01*
X172466Y22534D01*
X171897Y21792D01*
X171539Y20927D01*
X171417Y20000D01*
X171539Y19073D01*
X171897Y18208D01*
X172466Y17466D01*
X173208Y16897D01*
X174073Y16539D01*
X175000Y16417D01*
X175927Y16539D01*
X176792Y16897D01*
X177534Y17466D01*
X178103Y18208D01*
X178461Y19073D01*
X178583Y20000D01*
X178461Y20927D01*
X178103Y21792D01*
X177534Y22534D01*
X176792Y23103D01*
X175927Y23461D01*
X175000Y23583D01*
D02*
G37*
G36*
X185000D02*
X184073Y23461D01*
X183208Y23103D01*
X182466Y22534D01*
X181897Y21792D01*
X181539Y20927D01*
X181417Y20000D01*
X181539Y19073D01*
X181897Y18208D01*
X182466Y17466D01*
X183208Y16897D01*
X184073Y16539D01*
X185000Y16417D01*
X185927Y16539D01*
X186792Y16897D01*
X187534Y17466D01*
X188103Y18208D01*
X188461Y19073D01*
X188583Y20000D01*
X188461Y20927D01*
X188103Y21792D01*
X187534Y22534D01*
X186792Y23103D01*
X185927Y23461D01*
X185000Y23583D01*
D02*
G37*
G36*
X333553Y23553D02*
X326447D01*
Y16447D01*
X333553D01*
Y23553D01*
D02*
G37*
G36*
X329949Y47000D02*
X328000D01*
Y45050D01*
X328475Y45145D01*
X329302Y45698D01*
X329855Y46525D01*
X329949Y47000D01*
D02*
G37*
G36*
X237000Y47500D02*
X235051D01*
X235145Y47025D01*
X235698Y46198D01*
X236525Y45645D01*
X237000Y45551D01*
Y47500D01*
D02*
G37*
G36*
X327000Y47000D02*
X325050D01*
X325145Y46525D01*
X325698Y45698D01*
X326524Y45145D01*
X327000Y45050D01*
Y47000D01*
D02*
G37*
G36*
X122232Y53616D02*
X114455D01*
Y41311D01*
X122232D01*
Y53616D01*
D02*
G37*
G36*
X131009D02*
X123232D01*
Y41311D01*
X131009D01*
Y53616D01*
D02*
G37*
G36*
X239949Y47500D02*
X238000D01*
Y45551D01*
X238475Y45645D01*
X239302Y46198D01*
X239855Y47025D01*
X239949Y47500D01*
D02*
G37*
G36*
X238000Y50450D02*
Y48500D01*
X239949D01*
X239855Y48976D01*
X239302Y49802D01*
X238475Y50355D01*
X238000Y50450D01*
D02*
G37*
G36*
X223953Y67453D02*
X222003D01*
X222098Y66977D01*
X222650Y66150D01*
X223477Y65598D01*
X223953Y65503D01*
Y67453D01*
D02*
G37*
G36*
X237000Y50450D02*
X236525Y50355D01*
X235698Y49802D01*
X235145Y48976D01*
X235051Y48500D01*
X237000D01*
Y50450D01*
D02*
G37*
G36*
X327000Y49949D02*
X326524Y49855D01*
X325698Y49302D01*
X325145Y48476D01*
X325050Y48000D01*
X327000D01*
Y49949D01*
D02*
G37*
G36*
X328000D02*
Y48000D01*
X329949D01*
X329855Y48476D01*
X329302Y49302D01*
X328475Y49855D01*
X328000Y49949D01*
D02*
G37*
G36*
X122232Y40311D02*
X114455D01*
Y28006D01*
X122232D01*
Y40311D01*
D02*
G37*
G36*
X131009D02*
X123232D01*
Y28006D01*
X131009D01*
Y40311D01*
D02*
G37*
G36*
X80222Y53616D02*
X63668D01*
Y28006D01*
X80222D01*
Y53616D01*
D02*
G37*
G36*
X393553Y23553D02*
X386447D01*
Y16447D01*
X393553D01*
Y23553D01*
D02*
G37*
G36*
X97339Y30426D02*
X96154Y30271D01*
X95051Y29814D01*
X94103Y29086D01*
X93375Y28139D01*
X92918Y27035D01*
X92762Y25850D01*
X92918Y24666D01*
X93375Y23562D01*
X94103Y22615D01*
X95051Y21887D01*
X96154Y21430D01*
X97339Y21274D01*
X98523Y21430D01*
X99627Y21887D01*
X100574Y22615D01*
X101302Y23562D01*
X101759Y24666D01*
X101915Y25850D01*
X101759Y27035D01*
X101302Y28139D01*
X100574Y29086D01*
X99627Y29814D01*
X98523Y30271D01*
X97339Y30426D01*
D02*
G37*
G36*
X29500Y52268D02*
X27089Y52110D01*
X24228Y51541D01*
X21466Y50604D01*
X18849Y49314D01*
X16424Y47693D01*
X14231Y45769D01*
X12307Y43576D01*
X10687Y41151D01*
X9396Y38534D01*
X8459Y35772D01*
X7890Y32911D01*
X7732Y30500D01*
X29500D01*
Y52268D01*
D02*
G37*
G36*
X322000Y44549D02*
X321024Y44355D01*
X320198Y43802D01*
X319645Y42976D01*
X319451Y42000D01*
X319645Y41025D01*
X320198Y40198D01*
X320623Y39913D01*
Y36587D01*
X320198Y36302D01*
X319645Y35476D01*
X319451Y34500D01*
X319645Y33525D01*
X320198Y32698D01*
X321024Y32145D01*
X322000Y31951D01*
X322975Y32145D01*
X323802Y32698D01*
X324355Y33525D01*
X324549Y34500D01*
X324355Y35476D01*
X323802Y36302D01*
X323376Y36587D01*
Y39913D01*
X323802Y40198D01*
X324355Y41025D01*
X324549Y42000D01*
X324355Y42976D01*
X323802Y43802D01*
X322975Y44355D01*
X322000Y44549D01*
D02*
G37*
G36*
X305500Y64549D02*
X304524Y64355D01*
X303698Y63802D01*
X303145Y62976D01*
X302951Y62000D01*
X303145Y61024D01*
X303698Y60198D01*
X304123Y59913D01*
Y37087D01*
X303698Y36802D01*
X303145Y35976D01*
X302951Y35000D01*
X303145Y34025D01*
X303698Y33198D01*
X304524Y32645D01*
X305500Y32451D01*
X306475Y32645D01*
X307302Y33198D01*
X307855Y34025D01*
X308049Y35000D01*
X307855Y35976D01*
X307302Y36802D01*
X306876Y37087D01*
Y59913D01*
X307302Y60198D01*
X307855Y61024D01*
X308049Y62000D01*
X307855Y62976D01*
X307302Y63802D01*
X306475Y64355D01*
X305500Y64549D01*
D02*
G37*
G36*
X420500Y52268D02*
Y30500D01*
X442269D01*
X442110Y32911D01*
X441541Y35772D01*
X440604Y38534D01*
X439314Y41151D01*
X437693Y43576D01*
X435769Y45769D01*
X433576Y47693D01*
X431151Y49314D01*
X428534Y50604D01*
X425772Y51541D01*
X422911Y52110D01*
X420500Y52268D01*
D02*
G37*
G36*
X30500D02*
Y30500D01*
X52268D01*
X52110Y32911D01*
X51541Y35772D01*
X50604Y38534D01*
X49314Y41151D01*
X47693Y43576D01*
X45769Y45769D01*
X43576Y47693D01*
X41151Y49314D01*
X38534Y50604D01*
X35772Y51541D01*
X32911Y52110D01*
X30500Y52268D01*
D02*
G37*
G36*
X419500D02*
X417089Y52110D01*
X414228Y51541D01*
X411466Y50604D01*
X408849Y49314D01*
X406424Y47693D01*
X404231Y45769D01*
X402307Y43576D01*
X400687Y41151D01*
X399396Y38534D01*
X398459Y35772D01*
X397889Y32911D01*
X397731Y30500D01*
X419500D01*
Y52268D01*
D02*
G37*
G36*
X219894Y176000D02*
X217944D01*
X218039Y175524D01*
X218591Y174698D01*
X219418Y174145D01*
X219894Y174050D01*
Y176000D01*
D02*
G37*
G36*
X222843D02*
X220894D01*
Y174050D01*
X221369Y174145D01*
X222196Y174698D01*
X222749Y175524D01*
X222843Y176000D01*
D02*
G37*
G36*
X209450D02*
X207500D01*
Y174050D01*
X207976Y174145D01*
X208802Y174698D01*
X209355Y175524D01*
X209450Y176000D01*
D02*
G37*
G36*
X330850Y178100D02*
X315150D01*
Y176376D01*
X306500D01*
X305973Y176272D01*
X305527Y175973D01*
X297502Y167949D01*
X297000Y168049D01*
X296024Y167855D01*
X295198Y167302D01*
X294645Y166475D01*
X294451Y165500D01*
X294645Y164524D01*
X295198Y163698D01*
X296024Y163145D01*
X297000Y162951D01*
X297975Y163145D01*
X298802Y163698D01*
X299355Y164524D01*
X299549Y165500D01*
X299449Y166002D01*
X307070Y173624D01*
X315150D01*
Y171900D01*
X330850D01*
Y178100D01*
D02*
G37*
G36*
X206500Y176000D02*
X204551D01*
X204645Y175524D01*
X205198Y174698D01*
X206025Y174145D01*
X206500Y174050D01*
Y176000D01*
D02*
G37*
G36*
X233000D02*
X231050D01*
X231145Y175524D01*
X231698Y174698D01*
X232524Y174145D01*
X233000Y174050D01*
Y176000D01*
D02*
G37*
G36*
X219894Y178949D02*
X219418Y178855D01*
X218591Y178302D01*
X218039Y177476D01*
X217944Y177000D01*
X219894D01*
Y178949D01*
D02*
G37*
G36*
X220894D02*
Y177000D01*
X222843D01*
X222749Y177476D01*
X222196Y178302D01*
X221369Y178855D01*
X220894Y178949D01*
D02*
G37*
G36*
X207500D02*
Y177000D01*
X209450D01*
X209355Y177476D01*
X208802Y178302D01*
X207976Y178855D01*
X207500Y178949D01*
D02*
G37*
G36*
X235949Y176000D02*
X234000D01*
Y174050D01*
X234475Y174145D01*
X235302Y174698D01*
X235855Y175524D01*
X235949Y176000D01*
D02*
G37*
G36*
X206500Y178949D02*
X206025Y178855D01*
X205198Y178302D01*
X204645Y177476D01*
X204551Y177000D01*
X206500D01*
Y178949D01*
D02*
G37*
G36*
X278500Y201049D02*
X277524Y200855D01*
X276698Y200302D01*
X276145Y199476D01*
X275951Y198500D01*
X276145Y197524D01*
X276698Y196698D01*
X276869Y196583D01*
Y175917D01*
X276698Y175802D01*
X276145Y174976D01*
X275951Y174000D01*
X276145Y173024D01*
X276698Y172198D01*
X277524Y171645D01*
X278500Y171451D01*
X279475Y171645D01*
X280302Y172198D01*
X280855Y173024D01*
X281049Y174000D01*
X280855Y174976D01*
X280302Y175802D01*
X280131Y175917D01*
Y196583D01*
X280302Y196698D01*
X280855Y197524D01*
X281049Y198500D01*
X280855Y199476D01*
X280302Y200302D01*
X279475Y200855D01*
X278500Y201049D01*
D02*
G37*
G36*
X110436Y169868D02*
X107974D01*
Y163666D01*
X110436D01*
Y169868D01*
D02*
G37*
G36*
X29500Y189500D02*
X7732D01*
X7890Y187089D01*
X8459Y184228D01*
X9396Y181466D01*
X10687Y178849D01*
X12307Y176424D01*
X14231Y174231D01*
X16424Y172307D01*
X18849Y170686D01*
X21466Y169396D01*
X24228Y168459D01*
X27089Y167889D01*
X29500Y167731D01*
Y189500D01*
D02*
G37*
G36*
X106974Y169868D02*
X104512D01*
Y163666D01*
X106974D01*
Y169868D01*
D02*
G37*
G36*
X69966D02*
X67504D01*
Y163666D01*
X69966D01*
Y169868D01*
D02*
G37*
G36*
X73428D02*
X70966D01*
Y163666D01*
X73428D01*
Y169868D01*
D02*
G37*
G36*
X52268Y189500D02*
X30500D01*
Y167731D01*
X32911Y167889D01*
X35772Y168459D01*
X38534Y169396D01*
X41151Y170686D01*
X43576Y172307D01*
X45769Y174231D01*
X47693Y176424D01*
X49314Y178849D01*
X50604Y181466D01*
X51541Y184228D01*
X52110Y187089D01*
X52268Y189500D01*
D02*
G37*
G36*
X161445Y173158D02*
Y171209D01*
X163394D01*
X163300Y171684D01*
X162747Y172511D01*
X161920Y173064D01*
X161445Y173158D01*
D02*
G37*
G36*
X348350Y178100D02*
X332650D01*
Y171900D01*
X334800D01*
X334845Y171792D01*
X334567Y171376D01*
X311000D01*
X311000Y171377D01*
X310473Y171272D01*
X310027Y170973D01*
X306502Y167449D01*
X306000Y167549D01*
X305025Y167355D01*
X304198Y166802D01*
X303645Y165975D01*
X303451Y165000D01*
X303645Y164024D01*
X304198Y163198D01*
X305025Y162645D01*
X306000Y162451D01*
X306976Y162645D01*
X307802Y163198D01*
X308355Y164024D01*
X308549Y165000D01*
X308449Y165502D01*
X311570Y168624D01*
X335500D01*
X336027Y168728D01*
X336473Y169027D01*
X339347Y171900D01*
X348350D01*
Y178100D01*
D02*
G37*
G36*
X160445Y173158D02*
X159969Y173064D01*
X159142Y172511D01*
X158590Y171684D01*
X158495Y171209D01*
X160445D01*
Y173158D01*
D02*
G37*
G36*
X419500Y189500D02*
X397731D01*
X397889Y187089D01*
X398459Y184228D01*
X399396Y181466D01*
X400687Y178849D01*
X402307Y176424D01*
X404231Y174231D01*
X406424Y172307D01*
X408849Y170686D01*
X411466Y169396D01*
X414228Y168459D01*
X417089Y167889D01*
X419500Y167731D01*
Y189500D01*
D02*
G37*
G36*
X442269D02*
X420500D01*
Y167731D01*
X422911Y167889D01*
X425772Y168459D01*
X428534Y169396D01*
X431151Y170686D01*
X433576Y172307D01*
X435769Y174231D01*
X437693Y176424D01*
X439314Y178849D01*
X440604Y181466D01*
X441541Y184228D01*
X442110Y187089D01*
X442269Y189500D01*
D02*
G37*
G36*
X73428Y197705D02*
X70966D01*
Y191503D01*
X73428D01*
Y197705D01*
D02*
G37*
G36*
X106974D02*
X104512D01*
Y191503D01*
X106974D01*
Y197705D01*
D02*
G37*
G36*
X69966D02*
X67504D01*
Y191503D01*
X69966D01*
Y197705D01*
D02*
G37*
G36*
X419500Y212268D02*
X417089Y212110D01*
X414228Y211541D01*
X411466Y210604D01*
X408849Y209314D01*
X406424Y207693D01*
X404231Y205769D01*
X402307Y203576D01*
X400687Y201151D01*
X399396Y198534D01*
X398459Y195772D01*
X397889Y192911D01*
X397731Y190500D01*
X419500D01*
Y212268D01*
D02*
G37*
G36*
X420500D02*
Y190500D01*
X442269D01*
X442110Y192911D01*
X441541Y195772D01*
X440604Y198534D01*
X439314Y201151D01*
X437693Y203576D01*
X435769Y205769D01*
X433576Y207693D01*
X431151Y209314D01*
X428534Y210604D01*
X425772Y211541D01*
X422911Y212110D01*
X420500Y212268D01*
D02*
G37*
G36*
X110436Y197705D02*
X107974D01*
Y191503D01*
X110436D01*
Y197705D01*
D02*
G37*
G36*
X106974Y204907D02*
X104512D01*
Y198705D01*
X106974D01*
Y204907D01*
D02*
G37*
G36*
X110436D02*
X107974D01*
Y198705D01*
X110436D01*
Y204907D01*
D02*
G37*
G36*
X73428D02*
X70966D01*
Y198705D01*
X73428D01*
Y204907D01*
D02*
G37*
G36*
X89176D02*
X83252D01*
Y191503D01*
X84838D01*
Y169868D01*
X83252D01*
Y156463D01*
X89176D01*
Y169868D01*
X87591D01*
Y191503D01*
X89176D01*
Y196828D01*
X96268D01*
X96552Y196403D01*
X97379Y195850D01*
X98355Y195656D01*
X99330Y195850D01*
X100157Y196403D01*
X100710Y197230D01*
X100904Y198205D01*
X100710Y199180D01*
X100157Y200007D01*
X99330Y200560D01*
X98355Y200754D01*
X97379Y200560D01*
X96552Y200007D01*
X96268Y199581D01*
X89176D01*
Y204907D01*
D02*
G37*
G36*
X69966D02*
X67504D01*
Y198705D01*
X69966D01*
Y204907D01*
D02*
G37*
G36*
X30500Y212268D02*
Y190500D01*
X52268D01*
X52110Y192911D01*
X51541Y195772D01*
X50604Y198534D01*
X49314Y201151D01*
X47693Y203576D01*
X45769Y205769D01*
X43576Y207693D01*
X41151Y209314D01*
X38534Y210604D01*
X35772Y211541D01*
X32911Y212110D01*
X30500Y212268D01*
D02*
G37*
G36*
X107449Y179500D02*
X105500D01*
Y177550D01*
X105975Y177645D01*
X106802Y178198D01*
X107355Y179025D01*
X107449Y179500D01*
D02*
G37*
G36*
X330850Y188100D02*
X315150D01*
Y181900D01*
X324298D01*
X326599Y179599D01*
X327012Y179323D01*
X327500Y179226D01*
X351845D01*
X352198Y178698D01*
X353025Y178145D01*
X354000Y177951D01*
X354976Y178145D01*
X355802Y178698D01*
X356355Y179525D01*
X356549Y180500D01*
X356355Y181475D01*
X355802Y182302D01*
X354976Y182855D01*
X354000Y183049D01*
X353025Y182855D01*
X352198Y182302D01*
X351845Y181774D01*
X348476D01*
X348350Y181900D01*
X348350Y182128D01*
X348350Y182128D01*
X348350D01*
Y184500D01*
X332650D01*
Y182128D01*
X332650Y182128D01*
X332650D01*
X332650Y181900D01*
X332524Y181774D01*
X330850D01*
Y181900D01*
X330850D01*
Y188100D01*
D02*
G37*
G36*
X104500Y179500D02*
X102550D01*
X102645Y179025D01*
X103198Y178198D01*
X104025Y177645D01*
X104500Y177550D01*
Y179500D01*
D02*
G37*
G36*
X233000Y178949D02*
X232524Y178855D01*
X231698Y178302D01*
X231145Y177476D01*
X231050Y177000D01*
X233000D01*
Y178949D01*
D02*
G37*
G36*
X234000D02*
Y177000D01*
X235949D01*
X235855Y177476D01*
X235302Y178302D01*
X234475Y178855D01*
X234000Y178949D01*
D02*
G37*
G36*
X307000Y185549D02*
X306025Y185355D01*
X305198Y184802D01*
X304913Y184376D01*
X297000D01*
X296473Y184272D01*
X296027Y183973D01*
X293002Y180949D01*
X292500Y181049D01*
X291525Y180855D01*
X290698Y180302D01*
X290145Y179475D01*
X289951Y178500D01*
X290145Y177524D01*
X290698Y176698D01*
X291525Y176145D01*
X292500Y175951D01*
X293476Y176145D01*
X294302Y176698D01*
X294855Y177524D01*
X295049Y178500D01*
X294949Y179002D01*
X297570Y181624D01*
X304913D01*
X305198Y181198D01*
X306025Y180645D01*
X307000Y180451D01*
X307976Y180645D01*
X308802Y181198D01*
X309355Y182025D01*
X309549Y183000D01*
X309355Y183976D01*
X308802Y184802D01*
X307976Y185355D01*
X307000Y185549D01*
D02*
G37*
G36*
X348350Y188100D02*
X341000D01*
Y185500D01*
X348350D01*
Y188100D01*
D02*
G37*
G36*
X29500Y212268D02*
X27089Y212110D01*
X24228Y211541D01*
X21466Y210604D01*
X18849Y209314D01*
X16424Y207693D01*
X14231Y205769D01*
X12307Y203576D01*
X10687Y201151D01*
X9396Y198534D01*
X8459Y195772D01*
X7890Y192911D01*
X7732Y190500D01*
X29500D01*
Y212268D01*
D02*
G37*
G36*
X340000Y188100D02*
X332650D01*
Y185500D01*
X340000D01*
Y188100D01*
D02*
G37*
G36*
X104500Y182449D02*
X104025Y182355D01*
X103198Y181802D01*
X102645Y180975D01*
X102550Y180500D01*
X104500D01*
Y182449D01*
D02*
G37*
G36*
X105500D02*
Y180500D01*
X107449D01*
X107355Y180975D01*
X106802Y181802D01*
X105975Y182355D01*
X105500Y182449D01*
D02*
G37*
G36*
X319760Y135311D02*
X318282D01*
Y133242D01*
X319760D01*
Y135311D01*
D02*
G37*
G36*
X322238D02*
X320760D01*
Y133242D01*
X322238D01*
Y135311D01*
D02*
G37*
G36*
X310221Y139147D02*
X309245Y138953D01*
X308418Y138401D01*
X307866Y137574D01*
X307671Y136598D01*
X307866Y135623D01*
X308418Y134796D01*
X309245Y134244D01*
X310221Y134049D01*
X311196Y134244D01*
X311935Y134738D01*
X312376Y134502D01*
Y133242D01*
X316332D01*
Y138380D01*
X312376D01*
Y138380D01*
X312037Y138380D01*
X312023Y138401D01*
X311196Y138953D01*
X310221Y139147D01*
D02*
G37*
G36*
X220512Y133988D02*
X218562D01*
X218657Y133513D01*
X219209Y132686D01*
X220036Y132133D01*
X220512Y132039D01*
Y133988D01*
D02*
G37*
G36*
X223461D02*
X221512D01*
Y132039D01*
X221987Y132133D01*
X222814Y132686D01*
X223367Y133513D01*
X223461Y133988D01*
D02*
G37*
G36*
X162020Y136350D02*
X160070D01*
X160165Y135875D01*
X160717Y135048D01*
X161544Y134495D01*
X162020Y134401D01*
Y136350D01*
D02*
G37*
G36*
X88783Y144277D02*
X82858D01*
Y130873D01*
X84444D01*
Y109238D01*
X82858D01*
Y95833D01*
X88783D01*
Y109238D01*
X87197D01*
Y130873D01*
X88783D01*
Y136199D01*
X95874D01*
X96158Y135773D01*
X96986Y135220D01*
X97961Y135026D01*
X98936Y135220D01*
X99763Y135773D01*
X100316Y136600D01*
X100510Y137575D01*
X100316Y138550D01*
X99763Y139377D01*
X98936Y139930D01*
X97961Y140124D01*
X96986Y139930D01*
X96158Y139377D01*
X95874Y138952D01*
X88783D01*
Y144277D01*
D02*
G37*
G36*
X319760Y138380D02*
X318282D01*
Y136311D01*
X319760D01*
Y138380D01*
D02*
G37*
G36*
X221512Y136938D02*
Y134988D01*
X223461D01*
X223367Y135464D01*
X222814Y136291D01*
X221987Y136843D01*
X221512Y136938D01*
D02*
G37*
G36*
X164969Y136350D02*
X163020D01*
Y134401D01*
X163495Y134495D01*
X164322Y135048D01*
X164875Y135875D01*
X164969Y136350D01*
D02*
G37*
G36*
X220512Y136938D02*
X220036Y136843D01*
X219209Y136291D01*
X218657Y135464D01*
X218562Y134988D01*
X220512D01*
Y136938D01*
D02*
G37*
G36*
X109649Y137075D02*
X107186D01*
Y130873D01*
X109649D01*
Y137075D01*
D02*
G37*
G36*
X382500Y130449D02*
Y128500D01*
X384450D01*
X384355Y128975D01*
X383802Y129802D01*
X382976Y130355D01*
X382500Y130449D01*
D02*
G37*
G36*
X293185Y130764D02*
X292710Y130670D01*
X291883Y130117D01*
X291330Y129290D01*
X291235Y128815D01*
X293185D01*
Y130764D01*
D02*
G37*
G36*
X381500Y130449D02*
X381025Y130355D01*
X380198Y129802D01*
X379645Y128975D01*
X379551Y128500D01*
X381500D01*
Y130449D01*
D02*
G37*
G36*
X349484Y128516D02*
X347535D01*
X347629Y128040D01*
X348182Y127213D01*
X349009Y126661D01*
X349484Y126566D01*
Y128516D01*
D02*
G37*
G36*
X352434D02*
X350484D01*
Y126566D01*
X350960Y126661D01*
X351787Y127213D01*
X352339Y128040D01*
X352434Y128516D01*
D02*
G37*
G36*
X294185Y130764D02*
Y128815D01*
X296135D01*
X296040Y129290D01*
X295487Y130117D01*
X294660Y130670D01*
X294185Y130764D01*
D02*
G37*
G36*
X73035Y137075D02*
X70572D01*
Y130873D01*
X73035D01*
Y137075D01*
D02*
G37*
G36*
X106186D02*
X103724D01*
Y130873D01*
X106186D01*
Y137075D01*
D02*
G37*
G36*
X69572D02*
X67110D01*
Y130873D01*
X69572D01*
Y137075D01*
D02*
G37*
G36*
X349484Y131465D02*
X349009Y131371D01*
X348182Y130818D01*
X347629Y129991D01*
X347535Y129516D01*
X349484D01*
Y131465D01*
D02*
G37*
G36*
X350484D02*
Y129516D01*
X352434D01*
X352339Y129991D01*
X351787Y130818D01*
X350960Y131371D01*
X350484Y131465D01*
D02*
G37*
G36*
X110436Y162666D02*
X107974D01*
Y156463D01*
X110436D01*
Y162666D01*
D02*
G37*
G36*
X126184Y204907D02*
X120260D01*
Y191503D01*
X121846D01*
Y185235D01*
X121198Y184802D01*
X120645Y183976D01*
X120451Y183000D01*
X120645Y182025D01*
X121198Y181198D01*
X121846Y180765D01*
Y169868D01*
X120260D01*
Y156463D01*
X126184D01*
Y169868D01*
X124599D01*
Y181061D01*
X124802Y181198D01*
X125355Y182025D01*
X125549Y183000D01*
X125355Y183976D01*
X124802Y184802D01*
X124599Y184939D01*
Y191503D01*
X126184D01*
Y204907D01*
D02*
G37*
G36*
X106974Y162666D02*
X104512D01*
Y156463D01*
X106974D01*
Y162666D01*
D02*
G37*
G36*
X69966D02*
X67504D01*
Y156463D01*
X69966D01*
Y162666D01*
D02*
G37*
G36*
X73428D02*
X70966D01*
Y156463D01*
X73428D01*
Y162666D01*
D02*
G37*
G36*
X163394Y170209D02*
X158495D01*
X158590Y169733D01*
X158804Y169413D01*
Y167765D01*
X154046D01*
Y159398D01*
X167844D01*
Y167765D01*
X163086D01*
Y169413D01*
X163300Y169733D01*
X163394Y170209D01*
D02*
G37*
G36*
X381500Y164450D02*
X381025Y164355D01*
X380198Y163802D01*
X379645Y162976D01*
X379551Y162500D01*
X381500D01*
Y164450D01*
D02*
G37*
G36*
X382500D02*
Y162500D01*
X384450D01*
X384355Y162976D01*
X383802Y163802D01*
X382976Y164355D01*
X382500Y164450D01*
D02*
G37*
G36*
X330850Y168100D02*
X315150D01*
Y166376D01*
X312500D01*
X311973Y166272D01*
X311527Y165973D01*
X311527Y165973D01*
X304527Y158973D01*
X304228Y158527D01*
X304123Y158000D01*
Y157587D01*
X303698Y157302D01*
X303145Y156475D01*
X302951Y155500D01*
X303145Y154525D01*
X303698Y153698D01*
X304524Y153145D01*
X305500Y152951D01*
X306475Y153145D01*
X307302Y153698D01*
X307855Y154525D01*
X308049Y155500D01*
X307855Y156475D01*
X307302Y157302D01*
X307298Y157305D01*
X307249Y157803D01*
X313070Y163624D01*
X315150D01*
Y161900D01*
X330850D01*
Y168100D01*
D02*
G37*
G36*
X381500Y161500D02*
X379551D01*
X379645Y161024D01*
X380198Y160198D01*
X381025Y159645D01*
X381500Y159550D01*
Y161500D01*
D02*
G37*
G36*
X384450D02*
X382500D01*
Y159550D01*
X382976Y159645D01*
X383802Y160198D01*
X384355Y161024D01*
X384450Y161500D01*
D02*
G37*
G36*
X348350Y168100D02*
X332650D01*
Y161900D01*
X339226D01*
Y158655D01*
X338698Y158302D01*
X338145Y157475D01*
X337951Y156500D01*
X338145Y155525D01*
X338698Y154698D01*
X339525Y154145D01*
X340500Y153951D01*
X341476Y154145D01*
X342302Y154698D01*
X342855Y155525D01*
X343049Y156500D01*
X342855Y157475D01*
X342302Y158302D01*
X341775Y158655D01*
Y161900D01*
X348350D01*
Y168100D01*
D02*
G37*
G36*
X69572Y144277D02*
X67110D01*
Y138075D01*
X69572D01*
Y144277D01*
D02*
G37*
G36*
X73035D02*
X70572D01*
Y138075D01*
X73035D01*
Y144277D01*
D02*
G37*
G36*
X163020Y139300D02*
Y137350D01*
X164969D01*
X164875Y137826D01*
X164322Y138653D01*
X163495Y139205D01*
X163020Y139300D01*
D02*
G37*
G36*
X322238Y138380D02*
X320760D01*
Y136311D01*
X322238D01*
Y138380D01*
D02*
G37*
G36*
X162020Y139300D02*
X161544Y139205D01*
X160717Y138653D01*
X160165Y137826D01*
X160070Y137350D01*
X162020D01*
Y139300D01*
D02*
G37*
G36*
X106186Y144277D02*
X103724D01*
Y138075D01*
X106186D01*
Y144277D01*
D02*
G37*
G36*
X160445Y158398D02*
X154046D01*
Y150030D01*
X160445D01*
Y158398D01*
D02*
G37*
G36*
X167844D02*
X161445D01*
Y150030D01*
X167844D01*
Y158398D01*
D02*
G37*
G36*
X240876Y173277D02*
X196369D01*
Y144518D01*
X240876D01*
Y173277D01*
D02*
G37*
G36*
X109649Y144277D02*
X107186D01*
Y138075D01*
X109649D01*
Y144277D01*
D02*
G37*
G36*
X125397D02*
X119472D01*
Y138952D01*
X116037D01*
X115802Y139302D01*
X114976Y139855D01*
X114000Y140049D01*
X113024Y139855D01*
X112198Y139302D01*
X111645Y138476D01*
X111451Y137500D01*
X111645Y136524D01*
X112198Y135698D01*
X113024Y135145D01*
X114000Y134951D01*
X114976Y135145D01*
X115802Y135698D01*
X116137Y136199D01*
X119472D01*
Y130873D01*
X121058D01*
Y109238D01*
X119472D01*
Y95833D01*
X125397D01*
Y109238D01*
X123811D01*
Y130873D01*
X125397D01*
Y144277D01*
D02*
G37*
%LPD*%
D11*
X320260Y135811D02*
D03*
X314354D02*
D03*
D22*
X81000Y76244D02*
X94976D01*
X276299Y124646D02*
Y158898D01*
X160945D02*
Y170709D01*
D23*
X305500Y158000D02*
X312500Y165000D01*
X305500Y155500D02*
Y158000D01*
X306000Y165000D02*
X311000Y170000D01*
X322000Y34000D02*
Y34500D01*
Y42000D01*
X305500Y35000D02*
Y62000D01*
X123222Y163166D02*
Y198205D01*
X297000Y183000D02*
X307000D01*
X292500Y178500D02*
X297000Y183000D01*
Y165500D02*
X306500Y175000D01*
X323000D01*
X123222Y198205D02*
X124500D01*
X114075Y137575D02*
X122434D01*
X311000Y170000D02*
X335500D01*
X312500Y165000D02*
X323000D01*
X85820Y137575D02*
X97961D01*
X86214Y198205D02*
X98355D01*
X86214Y163166D02*
Y198205D01*
X85820Y102536D02*
Y137575D01*
X122434Y102536D02*
Y137575D01*
X335500Y170000D02*
X340500Y175000D01*
D24*
X272000Y82500D02*
X281000D01*
X278500Y174000D02*
Y198500D01*
X313567Y136598D02*
X314354Y135811D01*
X310221Y136598D02*
X313567D01*
D25*
X327500Y180500D02*
X353500D01*
X323000Y185000D02*
X327500Y180500D01*
X340500Y156500D02*
Y165000D01*
D26*
X97339Y25850D02*
D03*
D27*
X390000Y20000D02*
D03*
X330000D02*
D03*
X255000D02*
D03*
X195000D02*
D03*
X390000Y90000D02*
D03*
X330000D02*
D03*
X255000D02*
D03*
X195000D02*
D03*
D28*
X380000Y20000D02*
D03*
X370000D02*
D03*
X360000D02*
D03*
X350000D02*
D03*
X320000D02*
D03*
X310000D02*
D03*
X300000D02*
D03*
X290000D02*
D03*
X245000D02*
D03*
X235000D02*
D03*
X225000D02*
D03*
X215000D02*
D03*
X185000D02*
D03*
X175000D02*
D03*
X165000D02*
D03*
X155000D02*
D03*
X380000Y90000D02*
D03*
X370000D02*
D03*
X360000D02*
D03*
X350000D02*
D03*
X320000D02*
D03*
X310000D02*
D03*
X300000D02*
D03*
X290000D02*
D03*
X245000D02*
D03*
X235000D02*
D03*
X225000D02*
D03*
X215000D02*
D03*
X185000D02*
D03*
X175000D02*
D03*
X165000D02*
D03*
X155000D02*
D03*
D29*
X322000Y34500D02*
D03*
Y42000D02*
D03*
X305500Y35000D02*
D03*
X123000Y183000D02*
D03*
X105000Y180000D02*
D03*
X233500Y176500D02*
D03*
X220394D02*
D03*
X207000D02*
D03*
X382000Y162000D02*
D03*
Y128000D02*
D03*
X403260Y110760D02*
D03*
X293685Y128315D02*
D03*
X349984Y129016D02*
D03*
X221012Y134488D02*
D03*
X237500Y48000D02*
D03*
X224453Y67953D02*
D03*
X310000Y72000D02*
D03*
X327500Y47500D02*
D03*
X272000Y82500D02*
D03*
X281000D02*
D03*
X305500Y62000D02*
D03*
X354000Y180500D02*
D03*
X278500Y198500D02*
D03*
Y174000D02*
D03*
X307000Y183000D02*
D03*
X292500Y178500D02*
D03*
X297000Y165500D02*
D03*
X306000Y165000D02*
D03*
X305500Y155500D02*
D03*
X97961Y137575D02*
D03*
X98355Y198205D02*
D03*
X114000Y137500D02*
D03*
X340500Y156500D02*
D03*
X81000Y76244D02*
D03*
X160945Y170709D02*
D03*
X162520Y136850D02*
D03*
X276299Y124646D02*
D03*
X310221Y136598D02*
D03*
D30*
X30000Y190000D02*
D03*
Y30000D02*
D03*
X420000D02*
D03*
Y190000D02*
D03*
D31*
X71945Y40811D02*
D03*
X122732D02*
D03*
D32*
X94976Y76244D02*
D03*
D33*
X323000Y165000D02*
D03*
Y175000D02*
D03*
Y185000D02*
D03*
X340500Y165000D02*
D03*
Y175000D02*
D03*
Y185000D02*
D03*
D34*
X218622Y158898D02*
D03*
D35*
X276299D02*
D03*
X160945D02*
D03*
D36*
X70466Y163166D02*
D03*
Y198205D02*
D03*
X86214D02*
D03*
Y163166D02*
D03*
X107474D02*
D03*
Y198205D02*
D03*
X123222D02*
D03*
Y163166D02*
D03*
X70072Y102536D02*
D03*
Y137575D02*
D03*
X85820D02*
D03*
Y102536D02*
D03*
X106686D02*
D03*
Y137575D02*
D03*
X122434D02*
D03*
Y102536D02*
D03*
M02*
