%FSLAX25Y25*%
%MOIN*%
G70*
G01*
G75*
G04 Layer_Physical_Order=1*
G04 Layer_Color=255*
%ADD10R,0.03937X0.02756*%
%ADD11R,0.02756X0.03937*%
%ADD12R,0.09055X0.09055*%
%ADD13O,0.01378X0.07087*%
%ADD14R,0.01378X0.07087*%
%ADD15R,0.05000X0.07500*%
%ADD16R,0.11811X0.06299*%
%ADD17R,0.24410X0.22835*%
%ADD18R,0.02362X0.05906*%
%ADD19O,0.02165X0.06496*%
%ADD20O,0.06496X0.02165*%
%ADD21R,0.19685X0.05906*%
%ADD22C,0.03000*%
%ADD23C,0.01500*%
%ADD24C,0.02000*%
%ADD25C,0.01300*%
%ADD26C,0.07874*%
%ADD27R,0.05906X0.05906*%
%ADD28C,0.05906*%
%ADD29C,0.03800*%
%ADD30C,0.43307*%
G36*
X397000Y158000D02*
Y132000D01*
X391000Y126000D01*
X384201D01*
X383965Y126441D01*
X384355Y127024D01*
X384450Y127500D01*
X379551D01*
X379645Y127024D01*
X380035Y126441D01*
X379799Y126000D01*
X375931D01*
Y126432D01*
X375931D01*
Y128500D01*
X371975D01*
Y126432D01*
X371975D01*
Y126354D01*
X371621Y126000D01*
X371000D01*
Y164000D01*
X371975D01*
Y163568D01*
X371975D01*
Y161500D01*
X375931D01*
Y163568D01*
X375931D01*
Y163646D01*
X376284Y164000D01*
X379799D01*
X380035Y163559D01*
X379645Y162976D01*
X379551Y162500D01*
X384450D01*
X384355Y162976D01*
X383802Y163802D01*
X383862Y164000D01*
X391000D01*
X397000Y158000D01*
D02*
G37*
%LPC*%
G36*
X375931Y131569D02*
X374453D01*
Y129500D01*
X375931D01*
Y131569D01*
D02*
G37*
G36*
X391600Y143100D02*
X385400D01*
Y134400D01*
X391600D01*
Y143100D01*
D02*
G37*
G36*
X373453Y131569D02*
X371975D01*
Y129500D01*
X373453D01*
Y131569D01*
D02*
G37*
G36*
X381500Y130449D02*
X381025Y130355D01*
X380198Y129802D01*
X379645Y128975D01*
X379551Y128500D01*
X381500D01*
Y130449D01*
D02*
G37*
G36*
X382500D02*
Y128500D01*
X384450D01*
X384355Y128975D01*
X383802Y129802D01*
X382976Y130355D01*
X382500Y130449D01*
D02*
G37*
G36*
X381500Y161500D02*
X379551D01*
X379645Y161024D01*
X380198Y160198D01*
X381025Y159645D01*
X381500Y159550D01*
Y161500D01*
D02*
G37*
G36*
X384450D02*
X382500D01*
Y159550D01*
X382976Y159645D01*
X383802Y160198D01*
X384355Y161024D01*
X384450Y161500D01*
D02*
G37*
G36*
X375931Y160500D02*
X374453D01*
Y158431D01*
X375931D01*
Y160500D01*
D02*
G37*
G36*
X391600Y155600D02*
X385400D01*
Y146900D01*
X391600D01*
Y155600D01*
D02*
G37*
G36*
X373453Y160500D02*
X371975D01*
Y158431D01*
X373453D01*
Y160500D01*
D02*
G37*
%LPD*%
D10*
X158583Y123661D02*
D03*
Y129567D02*
D03*
X349984Y134039D02*
D03*
Y139945D02*
D03*
X113500Y162453D02*
D03*
Y156547D02*
D03*
Y174547D02*
D03*
Y180453D02*
D03*
X293685Y134827D02*
D03*
Y140732D02*
D03*
D11*
X353453Y119000D02*
D03*
X347547D02*
D03*
X368047Y129000D02*
D03*
X373953D02*
D03*
X368047Y161000D02*
D03*
X373953D02*
D03*
X317047Y72000D02*
D03*
X322953D02*
D03*
X232008Y134488D02*
D03*
X226102D02*
D03*
X231453Y48000D02*
D03*
X225547D02*
D03*
D12*
X247165Y133504D02*
D03*
Y115787D02*
D03*
X274331Y133504D02*
D03*
Y115787D02*
D03*
D13*
X360000Y67972D02*
D03*
X357500D02*
D03*
X355000D02*
D03*
X352500D02*
D03*
X350000D02*
D03*
X347500D02*
D03*
X345000D02*
D03*
X342500D02*
D03*
X340000D02*
D03*
X337500D02*
D03*
X335000D02*
D03*
X332500D02*
D03*
X360000Y47500D02*
D03*
X357500D02*
D03*
X355000D02*
D03*
X352500D02*
D03*
X350000D02*
D03*
X347500D02*
D03*
X345000D02*
D03*
X342500D02*
D03*
X340000D02*
D03*
X337500D02*
D03*
X335000D02*
D03*
X190925Y47480D02*
D03*
X193425D02*
D03*
X195925D02*
D03*
X198425D02*
D03*
X200925D02*
D03*
X203425D02*
D03*
X205925D02*
D03*
X208425D02*
D03*
X210925D02*
D03*
X213425D02*
D03*
X215925D02*
D03*
X218425D02*
D03*
X190925Y67953D02*
D03*
X193425D02*
D03*
X195925D02*
D03*
X198425D02*
D03*
X200925D02*
D03*
X203425D02*
D03*
X205925D02*
D03*
X208425D02*
D03*
X210925D02*
D03*
X213425D02*
D03*
X215925D02*
D03*
D14*
X332500Y47500D02*
D03*
X218425Y67953D02*
D03*
D15*
X366500Y138750D02*
D03*
X388500D02*
D03*
Y151250D02*
D03*
X366500D02*
D03*
D16*
X174409Y136398D02*
D03*
Y118405D02*
D03*
D17*
X202677Y127402D02*
D03*
D18*
X399240Y118240D02*
D03*
X391760D02*
D03*
X395500Y110760D02*
D03*
D19*
X331437Y118713D02*
D03*
X328287D02*
D03*
X325138D02*
D03*
X321988D02*
D03*
X318839D02*
D03*
X315689D02*
D03*
X312539D02*
D03*
X309390D02*
D03*
Y151784D02*
D03*
X312539D02*
D03*
X315689D02*
D03*
X318839D02*
D03*
X321988D02*
D03*
X325138D02*
D03*
X328287D02*
D03*
X331437D02*
D03*
D20*
X303878Y124224D02*
D03*
Y127374D02*
D03*
Y130524D02*
D03*
Y133673D02*
D03*
Y136823D02*
D03*
Y139972D02*
D03*
Y143122D02*
D03*
Y146272D02*
D03*
X336949D02*
D03*
Y143122D02*
D03*
Y139972D02*
D03*
Y136823D02*
D03*
Y133673D02*
D03*
Y130524D02*
D03*
Y127374D02*
D03*
Y124224D02*
D03*
D21*
X220394Y170315D02*
D03*
X251890D02*
D03*
X175118Y170315D02*
D03*
X143622D02*
D03*
D22*
X165000Y10000D02*
X175000Y20000D01*
X147244Y10000D02*
X165000D01*
X225000D01*
X300000D01*
X225000D02*
X235000Y20000D01*
X300000Y10000D02*
X360000D01*
X300000D02*
X310000Y20000D01*
X360000Y10000D02*
X370000Y20000D01*
X81000Y76244D02*
X147244Y10000D01*
X143622Y138211D02*
Y170315D01*
X81000Y76244D02*
X142967Y138211D01*
X113500Y174547D02*
X113911D01*
X158583Y132913D02*
X162520Y136850D01*
X214291Y115787D02*
X247165D01*
X226102Y134077D02*
Y134488D01*
X276299Y117756D02*
Y124646D01*
X274331Y115787D02*
X276299Y117756D01*
X202677Y127402D02*
X214291Y115787D01*
X161339Y170315D02*
X175118D01*
X143622Y138211D02*
X158172Y123661D01*
X158583D01*
X163839Y118405D01*
X174409D01*
X158583Y129567D02*
Y132913D01*
X162520Y136850D02*
X173957D01*
X174409Y136398D02*
X175118Y137106D01*
D23*
X155000Y20000D02*
X182480Y47480D01*
X165000Y20000D02*
X185500Y40500D01*
X216500Y35000D02*
X305500D01*
X216530Y38500D02*
X330000D01*
X315250Y48750D02*
X322000Y42000D01*
Y34500D02*
X332000D01*
X98355Y198205D02*
X103560Y193000D01*
X319000D01*
X98000Y189000D02*
X308000D01*
X101500Y186500D02*
X297500D01*
X123000Y183000D02*
X296000D01*
X133500Y180000D02*
X291000D01*
X92000Y143536D02*
X97961Y137575D01*
X92000Y143536D02*
Y183000D01*
X98000Y189000D01*
X97000Y154500D02*
X114000Y137500D01*
X97000Y154500D02*
Y182000D01*
X101500Y186500D01*
X105000Y180000D02*
X105453Y180453D01*
X113500D01*
Y169000D02*
X122000Y177500D01*
X131000D01*
X133500Y180000D01*
X305500Y155500D02*
X305673D01*
X309390Y151784D01*
X291000Y180000D02*
X292500Y178500D01*
X227315Y170315D02*
X233500Y176500D01*
X220394Y170315D02*
X227315D01*
X220394D02*
Y176106D01*
X207000Y176000D02*
X212685Y170315D01*
X220394D01*
X296000Y183000D02*
X315689Y163311D01*
X395500Y110760D02*
X403260D01*
X221012Y134488D02*
X226102D01*
X231453Y48000D02*
X237500D01*
X218425Y67953D02*
X224453D01*
X310000Y72000D02*
X317047D01*
X327500Y47500D02*
X332500D01*
X318839Y113661D02*
X321500Y111000D01*
X384520D01*
X391760Y118240D01*
X318839Y113661D02*
Y118713D01*
X155000Y90000D02*
X177047Y67953D01*
X190925D01*
X165000Y90000D02*
X173500Y81500D01*
X186500D01*
X193425Y74575D01*
Y67953D02*
Y74575D01*
X185000Y90000D02*
X195925Y79075D01*
Y67953D02*
Y79075D01*
X195000Y90000D02*
X198425Y86575D01*
Y67953D02*
Y86575D01*
X209000Y90000D02*
X215000D01*
X200925Y81925D02*
X209000Y90000D01*
X200925Y67953D02*
Y81925D01*
X219500Y84500D02*
X225000Y90000D01*
X209500Y84500D02*
X219500D01*
X203425Y78425D02*
X209500Y84500D01*
X205925Y74925D02*
X212500Y81500D01*
X236500D01*
X245000Y90000D01*
X203425Y67953D02*
Y78425D01*
X205925Y67953D02*
Y74925D01*
X243000Y78000D02*
X255000Y90000D01*
X213000Y78000D02*
X243000D01*
X208425Y73425D02*
X213000Y78000D01*
X208425Y67953D02*
Y73425D01*
X215925Y67953D02*
Y73425D01*
X217000Y74500D01*
X272000D01*
X210925Y61575D02*
Y67953D01*
Y61575D02*
X214500Y58000D01*
X287000D01*
X296250Y48750D01*
X213425Y63075D02*
X215500Y61000D01*
X291000D01*
X294400Y57600D01*
X213425Y63075D02*
Y67953D01*
X305500Y62000D02*
X307000Y60500D01*
X340000D01*
Y67972D01*
Y60500D02*
X380000D01*
X396500Y77000D01*
X294400Y57600D02*
X337400D01*
X296250Y48750D02*
X315250D01*
X337400Y57600D02*
X337500Y57500D01*
X272000Y74500D02*
X277000Y79500D01*
Y103500D01*
X284500Y111000D01*
X332000Y34500D02*
X340000Y42500D01*
Y47500D01*
X330000Y38500D02*
X335000Y43500D01*
Y47500D01*
X342500Y40000D02*
Y47500D01*
X333000Y30500D02*
X342500Y40000D01*
X214500Y32000D02*
X234500D01*
X208425Y38075D02*
X214500Y32000D01*
X234500D02*
X234750Y31750D01*
X243250D01*
X213000Y29500D02*
X235500D01*
X245000Y20000D01*
X205925Y36575D02*
X213000Y29500D01*
X243250Y31750D02*
X255000Y20000D01*
X384000Y54500D02*
X404000Y74500D01*
Y98500D01*
X396043Y106457D02*
X404000Y98500D01*
X341500Y54500D02*
X384000D01*
X337500Y57500D02*
X382000D01*
X400500Y76000D01*
Y96500D01*
X340000Y47500D02*
Y53000D01*
X341500Y54500D01*
X337500Y47500D02*
Y57500D01*
X317043Y106457D02*
X396043D01*
X315689Y107811D02*
X317043Y106457D01*
X315689Y107811D02*
Y118713D01*
X394500Y102500D02*
X400500Y96500D01*
X314000Y99000D02*
X393500D01*
X396500Y96000D01*
Y77000D02*
Y96000D01*
X309390Y103610D02*
X314000Y99000D01*
X316500Y102500D02*
X394500D01*
X312539Y106461D02*
X316500Y102500D01*
X312539Y106461D02*
Y118713D01*
X309390Y103610D02*
Y118713D01*
X208425Y38075D02*
Y47480D01*
X205925Y36575D02*
Y47480D01*
X203425Y35575D02*
Y47480D01*
Y35575D02*
X212100Y26900D01*
X218100D01*
X225000Y20000D01*
X200925Y34075D02*
X215000Y20000D01*
X200925Y34075D02*
Y47480D01*
X195000Y20000D02*
Y33500D01*
X198425Y36925D01*
Y47480D01*
X185000Y29500D02*
X195925Y40425D01*
Y47480D01*
X185000Y20000D02*
Y29500D01*
X192000Y40500D02*
X193425Y41925D01*
Y47480D01*
X185500Y40500D02*
X192000D01*
X182480Y47480D02*
X190925D01*
X325800Y84200D02*
X337800D01*
X347500Y74500D01*
Y67972D02*
Y74500D01*
X300000Y90000D02*
X308500Y81500D01*
X337000D01*
X345000Y73500D01*
Y67972D02*
Y73500D01*
X290000Y90000D02*
X301500Y78500D01*
X336500D01*
X342500Y72500D01*
Y67972D02*
Y72500D01*
X320000Y90000D02*
X325800Y84200D01*
X322953Y72000D02*
X325453Y74500D01*
X334000D01*
X335000Y73500D01*
X330000Y90000D02*
X335409D01*
X350000Y67972D02*
Y75410D01*
X335409Y90000D02*
X350000Y75410D01*
X352500Y67972D02*
Y87500D01*
X350000Y90000D02*
X352500Y87500D01*
X357500Y67972D02*
Y73500D01*
X364000Y80000D01*
X370000D01*
X380000Y90000D01*
X355000Y85000D02*
X360000Y90000D01*
X355000Y67972D02*
Y85000D01*
X367972Y67972D02*
X390000Y90000D01*
X360000Y67972D02*
X367972D01*
X290000Y20000D02*
X300500Y30500D01*
X333000D01*
X300000Y20000D02*
X307000Y27000D01*
X333500D01*
X322185Y20000D02*
X327085Y24900D01*
X336400D01*
X333500Y27000D02*
X345000Y38500D01*
X336400Y24900D02*
X347500Y36000D01*
X345000Y38500D02*
Y47500D01*
X347500Y36000D02*
Y47500D01*
X330000Y20500D02*
X338000D01*
X350000Y32500D01*
Y47500D01*
Y20000D02*
X352500Y22500D01*
Y47500D01*
X360000Y20000D02*
Y32000D01*
X355000Y37000D02*
X360000Y32000D01*
X355000Y37000D02*
Y47500D01*
X357500Y42500D02*
X380000Y20000D01*
X357500Y42500D02*
Y47500D01*
X362500D02*
X390000Y20000D01*
X360000Y47500D02*
X362500D01*
X335000Y67972D02*
Y73500D01*
X319000Y193000D02*
X331437Y180563D01*
X308000Y189000D02*
X328287Y168713D01*
X297500Y186500D02*
X318839Y165161D01*
X328287Y151784D02*
Y168713D01*
X325138Y151784D02*
Y165000D01*
X307000Y183000D02*
X325000Y165000D01*
X318839Y151784D02*
Y165161D01*
X315689Y151784D02*
Y163311D01*
X312539Y151784D02*
Y162500D01*
X310039Y165000D02*
X312539Y162500D01*
X306000Y165000D02*
X310039D01*
X331437Y151784D02*
Y180563D01*
X113500Y162453D02*
Y169000D01*
Y174547D01*
X129854Y156547D02*
X143622Y170315D01*
X113500Y156547D02*
X129854D01*
X284500Y111000D02*
X294000D01*
X303878Y120878D01*
Y124224D01*
X297000Y153150D02*
Y165500D01*
Y153150D02*
X303878Y146272D01*
X215925Y42075D02*
X217400Y40600D01*
X223600D01*
X225547Y42547D01*
X213425Y41605D02*
X216530Y38500D01*
X210925Y40575D02*
X216000Y35500D01*
X225547Y42547D02*
Y48000D01*
X213425Y41605D02*
Y47480D01*
X215925Y42075D02*
Y47480D01*
X210925Y40575D02*
Y47480D01*
D24*
X278500Y198500D02*
X366500D01*
X309370Y130991D02*
X340225D01*
X366500Y151250D02*
Y159453D01*
X368047Y161000D01*
X363000Y138998D02*
X366913D01*
X366500Y130547D02*
X368047Y129000D01*
X366500Y130547D02*
Y138750D01*
X293685Y128315D02*
Y134827D01*
X349984Y129016D02*
Y134039D01*
X399240Y118240D02*
X406000Y125000D01*
Y159000D01*
X143000Y98000D02*
X147500Y102500D01*
X143000Y62000D02*
Y98000D01*
Y62000D02*
X150000Y55000D01*
X215500D01*
X218425Y52075D01*
Y47480D02*
Y52075D01*
X261000Y93500D02*
X272000Y82500D01*
X261000Y93500D02*
Y111500D01*
X281000Y82500D02*
X297000Y66500D01*
X331028D01*
X332500Y67972D01*
X366500Y198500D02*
X406000Y159000D01*
X274815Y170315D02*
X278500Y174000D01*
X251890Y170315D02*
X274815D01*
X274331Y133504D02*
X281559Y140732D01*
X293685D01*
X321807Y139972D02*
X327500D01*
X334139D01*
X251890Y170315D02*
X253465Y171890D01*
X252000Y102500D02*
X261000Y111500D01*
Y133504D01*
X147500Y102500D02*
X252000D01*
X358876Y143122D02*
X363000Y138998D01*
X336949Y143122D02*
X358876D01*
X336949Y146272D02*
X357774D01*
X363000Y151498D01*
X366913D01*
X247165Y133504D02*
X261000D01*
X274331D01*
X342542Y134039D02*
X349984D01*
X336976Y139945D02*
X349984D01*
X341797Y132562D02*
Y134784D01*
X247165Y165591D02*
X251890Y170315D01*
X332101Y135712D02*
Y137934D01*
X334139Y139972D01*
X301068Y143122D02*
X303878D01*
X247165Y133504D02*
Y165591D01*
X232008Y134488D02*
X246181D01*
X340225Y136356D02*
X341797Y134784D01*
X340225Y130991D02*
X341797Y132562D01*
X336949Y136823D02*
X337416Y136356D01*
X340225D01*
X334139Y133673D02*
X336949D01*
X332101Y135712D02*
X334139Y133673D01*
X306688D02*
X309370Y130991D01*
X293685Y140732D02*
X298679D01*
X301068Y143122D01*
X303878Y133673D02*
X306688D01*
X294839D02*
X303878D01*
X293685Y134827D02*
X294839Y133673D01*
X318488Y143291D02*
X321807Y139972D01*
X304981Y143291D02*
X318488D01*
X303878Y136823D02*
X309996D01*
D25*
X378000Y180500D02*
X401000Y157500D01*
Y130000D02*
Y157500D01*
X354000Y180500D02*
X378000D01*
X383500Y124000D02*
X395000D01*
X401000Y130000D01*
X374500Y115000D02*
X383500Y124000D01*
X347547Y119000D02*
X351547Y115000D01*
X374500D01*
X349984Y139945D02*
X351555D01*
X355000Y136500D01*
Y120547D02*
Y136500D01*
X353453Y119000D02*
X355000Y120547D01*
X321988Y124488D02*
X322500Y125000D01*
X330614D01*
X336614Y119000D01*
X321988Y118713D02*
Y124488D01*
X336614Y119000D02*
X347547D01*
X327500Y142382D02*
X340500Y155382D01*
X327500Y139972D02*
Y142382D01*
D26*
X97339Y25850D02*
D03*
D27*
X390000Y20000D02*
D03*
X330000D02*
D03*
X255000D02*
D03*
X195000D02*
D03*
X390000Y90000D02*
D03*
X330000D02*
D03*
X255000D02*
D03*
X195000D02*
D03*
D28*
X380000Y20000D02*
D03*
X370000D02*
D03*
X360000D02*
D03*
X350000D02*
D03*
X320000D02*
D03*
X310000D02*
D03*
X300000D02*
D03*
X290000D02*
D03*
X245000D02*
D03*
X235000D02*
D03*
X225000D02*
D03*
X215000D02*
D03*
X185000D02*
D03*
X175000D02*
D03*
X165000D02*
D03*
X155000D02*
D03*
X380000Y90000D02*
D03*
X370000D02*
D03*
X360000D02*
D03*
X350000D02*
D03*
X320000D02*
D03*
X310000D02*
D03*
X300000D02*
D03*
X290000D02*
D03*
X245000D02*
D03*
X235000D02*
D03*
X225000D02*
D03*
X215000D02*
D03*
X185000D02*
D03*
X175000D02*
D03*
X165000D02*
D03*
X155000D02*
D03*
D29*
X322000Y34500D02*
D03*
Y42000D02*
D03*
X305500Y35000D02*
D03*
X123000Y183000D02*
D03*
X105000Y180000D02*
D03*
X233500Y176500D02*
D03*
X220394D02*
D03*
X207000D02*
D03*
X382000Y162000D02*
D03*
Y128000D02*
D03*
X403260Y110760D02*
D03*
X293685Y128315D02*
D03*
X349984Y129016D02*
D03*
X221012Y134488D02*
D03*
X237500Y48000D02*
D03*
X224453Y67953D02*
D03*
X310000Y72000D02*
D03*
X327500Y47500D02*
D03*
X272000Y82500D02*
D03*
X281000D02*
D03*
X305500Y62000D02*
D03*
X354000Y180500D02*
D03*
X278500Y198500D02*
D03*
Y174000D02*
D03*
X307000Y183000D02*
D03*
X292500Y178500D02*
D03*
X297000Y165500D02*
D03*
X306000Y165000D02*
D03*
X305500Y155500D02*
D03*
X97961Y137575D02*
D03*
X98355Y198205D02*
D03*
X114000Y137500D02*
D03*
X340500Y156500D02*
D03*
X81000Y76244D02*
D03*
X160945Y170709D02*
D03*
X162520Y136850D02*
D03*
X276299Y124646D02*
D03*
X310221Y136598D02*
D03*
D30*
X30000Y190000D02*
D03*
Y30000D02*
D03*
X420000D02*
D03*
Y190000D02*
D03*
M02*
