%FSLAX25Y25*%
%MOIN*%
G70*
G01*
G75*
G04 Layer_Color=16711935*
%ADD10R,0.03937X0.02756*%
%ADD11R,0.02756X0.03937*%
%ADD12R,0.09055X0.09055*%
%ADD13O,0.01378X0.07087*%
%ADD14R,0.01378X0.07087*%
%ADD15R,0.05000X0.07500*%
%ADD16R,0.11811X0.06299*%
%ADD17R,0.24410X0.22835*%
%ADD18R,0.02362X0.05906*%
%ADD19O,0.02165X0.06496*%
%ADD20O,0.06496X0.02165*%
%ADD21R,0.19685X0.05906*%
%ADD22C,0.03000*%
%ADD23C,0.01500*%
%ADD24C,0.02000*%
%ADD25C,0.01300*%
%ADD26C,0.07874*%
%ADD27R,0.05906X0.05906*%
%ADD28C,0.05906*%
%ADD29C,0.03800*%
%ADD30C,0.43307*%
%ADD31R,0.15354X0.24410*%
%ADD32R,0.12992X0.17323*%
%ADD33R,0.14500X0.05000*%
%ADD34R,0.43307X0.27559*%
%ADD35R,0.12598X0.16535*%
%ADD36R,0.04724X0.12205*%
%ADD37C,0.00787*%
%ADD38C,0.00984*%
%ADD39C,0.02362*%
%ADD40C,0.01000*%
%ADD41C,0.01969*%
%ADD42R,0.04737X0.03556*%
%ADD43R,0.03556X0.04737*%
%ADD44R,0.09855X0.09855*%
%ADD45O,0.02178X0.07887*%
%ADD46R,0.02178X0.07887*%
%ADD47R,0.05800X0.08300*%
%ADD48R,0.12611X0.07099*%
%ADD49R,0.25210X0.23635*%
%ADD50R,0.03162X0.06706*%
%ADD51O,0.02965X0.07296*%
%ADD52O,0.07296X0.02965*%
%ADD53R,0.20485X0.06706*%
%ADD54C,0.08674*%
%ADD55R,0.06706X0.06706*%
%ADD56C,0.06706*%
%ADD57C,0.04600*%
%ADD58C,0.44107*%
%ADD59R,0.16154X0.25210*%
%ADD60R,0.13792X0.18123*%
%ADD61R,0.15300X0.05800*%
%ADD62R,0.44107X0.28359*%
%ADD63R,0.13398X0.17335*%
%ADD64R,0.05524X0.13005*%
D43*
X320260Y135811D02*
D03*
X314354D02*
D03*
D54*
X97339Y25850D02*
D03*
D55*
X390000Y20000D02*
D03*
X330000D02*
D03*
X255000D02*
D03*
X195000D02*
D03*
X390000Y90000D02*
D03*
X330000D02*
D03*
X255000D02*
D03*
X195000D02*
D03*
D56*
X380000Y20000D02*
D03*
X370000D02*
D03*
X360000D02*
D03*
X350000D02*
D03*
X320000D02*
D03*
X310000D02*
D03*
X300000D02*
D03*
X290000D02*
D03*
X245000D02*
D03*
X235000D02*
D03*
X225000D02*
D03*
X215000D02*
D03*
X185000D02*
D03*
X175000D02*
D03*
X165000D02*
D03*
X155000D02*
D03*
X380000Y90000D02*
D03*
X370000D02*
D03*
X360000D02*
D03*
X350000D02*
D03*
X320000D02*
D03*
X310000D02*
D03*
X300000D02*
D03*
X290000D02*
D03*
X245000D02*
D03*
X235000D02*
D03*
X225000D02*
D03*
X215000D02*
D03*
X185000D02*
D03*
X175000D02*
D03*
X165000D02*
D03*
X155000D02*
D03*
D57*
X322000Y34500D02*
D03*
Y42000D02*
D03*
X305500Y35000D02*
D03*
X123000Y183000D02*
D03*
X105000Y180000D02*
D03*
X233500Y176500D02*
D03*
X220394D02*
D03*
X207000D02*
D03*
X382000Y162000D02*
D03*
Y128000D02*
D03*
X403260Y110760D02*
D03*
X293685Y128315D02*
D03*
X349984Y129016D02*
D03*
X221012Y134488D02*
D03*
X237500Y48000D02*
D03*
X224453Y67953D02*
D03*
X310000Y72000D02*
D03*
X327500Y47500D02*
D03*
X272000Y82500D02*
D03*
X281000D02*
D03*
X305500Y62000D02*
D03*
X354000Y180500D02*
D03*
X278500Y198500D02*
D03*
Y174000D02*
D03*
X307000Y183000D02*
D03*
X292500Y178500D02*
D03*
X297000Y165500D02*
D03*
X306000Y165000D02*
D03*
X305500Y155500D02*
D03*
X97961Y137575D02*
D03*
X98355Y198205D02*
D03*
X114000Y137500D02*
D03*
X340500Y156500D02*
D03*
X81000Y76244D02*
D03*
X160945Y170709D02*
D03*
X162520Y136850D02*
D03*
X276299Y124646D02*
D03*
X310221Y136598D02*
D03*
D58*
X30000Y190000D02*
D03*
Y30000D02*
D03*
X420000D02*
D03*
Y190000D02*
D03*
D59*
X71945Y40811D02*
D03*
X122732D02*
D03*
D60*
X94976Y76244D02*
D03*
D61*
X323000Y165000D02*
D03*
Y175000D02*
D03*
Y185000D02*
D03*
X340500Y165000D02*
D03*
Y175000D02*
D03*
Y185000D02*
D03*
D62*
X218622Y158898D02*
D03*
D63*
X276299D02*
D03*
X160945D02*
D03*
D64*
X70466Y163166D02*
D03*
Y198205D02*
D03*
X86214D02*
D03*
Y163166D02*
D03*
X107474D02*
D03*
Y198205D02*
D03*
X123222D02*
D03*
Y163166D02*
D03*
X70072Y102536D02*
D03*
Y137575D02*
D03*
X85820D02*
D03*
Y102536D02*
D03*
X106686D02*
D03*
Y137575D02*
D03*
X122434D02*
D03*
Y102536D02*
D03*
M02*
