M48
;Layer_Color=9474304
;FILE_FORMAT=2:5
INCH,LZ
;TYPE=PLATED
T1F00S00C0.02000
T2F00S00C0.03543
T3F00S00C0.07874
T4F00S00C0.14567
%
T01
X03055Y0035
X0322Y00345
Y0042
X03275Y00475
X03055Y0062
X031Y0072
X0281Y00825
X0272
X0224453Y0067953
X02375Y0048
X0081Y0076244
X0097961Y0137575
X0114Y01375
X016252Y013685
X0160945Y0170709
X0123Y0183
X0105Y018
X0098355Y0198205
X0207Y01765
X0220394
X02335
X0221012Y0134488
X0276299Y0124646
X0293685Y0128315
X0310221Y0136598
X03055Y01555
X0306Y0165
X0297Y01655
X02925Y01785
X02785Y0174
Y01985
X0307Y0183
X0354Y01805
X03405Y01565
X0349984Y0129016
X0382Y0128
Y0162
X040326Y011076
T02
X0245Y002
X0255
X029
X03
X031
X032
X033
X035
X036
X037
X038
X039
Y009
X038
X037
X036
X035
X033
X032
X031
X03
X029
X0255
X0245
X0235
X0225
X0215
X0195
X0185
X0175
X0165
X0155
Y002
X0165
X0175
X0185
X0195
X0215
X0225
X0235
T03
X0097339Y002585
T04
X042Y003
X003
Y019
X042
M30
